<svg width="1024" height="1024" viewBox="0 0 1024 1024" fill="none" xmlns="http://www.w3.org/2000/svg">
<path d="M1023.92 521.54C1022.92 801.296 803.141 1022.4 533.64 1023.97C265.058 1025.46 43.3599 799.019 43.3599 521.54C43.3599 244.06 262.914 19.1085 533.717 19.1085C804.52 19.1085 1024.92 248.064 1024 521.54H1023.92Z" fill="#0C0C0D"/>
<path d="M954.208 270.129L734.348 270.05V270.129H954.208Z" fill="url(#paint0_linear_576_72)"/>
<path d="M954.208 270.129L734.348 270.05V270.129H954.208Z" fill="url(#paint1_linear_576_72)"/>
<path d="M527.13 835.609L503.382 898.501L527.206 835.53H526.976V835.609H527.13Z" fill="url(#paint2_linear_576_72)"/>
<path d="M445.847 26.9608C439.029 28.1386 432.288 29.4734 425.623 30.8867L425.777 31.2007C432.441 29.6304 439.183 28.2171 445.924 26.9608H445.847Z" fill="#FFCC3B"/>
<path d="M466.378 81.7665L445.924 27.04C439.182 28.2963 432.441 29.7096 425.776 31.28L444.698 81.845H466.378V81.7665Z" fill="#FFCC3B"/>
<path d="M532.03 18.9523C530.192 18.9523 528.353 18.9523 526.438 19.0308C528.583 19.0308 530.651 19.0308 532.796 18.9523C532.567 18.9523 532.26 18.9523 532.03 18.9523Z" fill="url(#paint3_linear_576_72)"/>
<path d="M466.532 23.3492C466.532 23.3492 466.532 23.5062 466.609 23.6632C484.151 21.2292 502.001 19.6588 520.08 19.1877C502.001 19.6588 484.075 21.0722 466.532 23.4277V23.3492Z" fill="url(#paint4_linear_576_72)"/>
<path d="M624.035 81.766H645.791H771.273C700.871 41.7222 619.899 18.9523 533.716 18.9523C511.271 18.9523 488.519 20.6011 466.609 23.6633C468.218 27.8247 488.212 81.2949 488.366 81.766H623.959H624.035Z" fill="url(#paint5_linear_576_72)"/>
<path d="M647.706 144.58H669.386L645.791 81.7661H624.035L647.706 144.58Z" fill="#FFFF03"/>
<path d="M667.7 81.7661L691.371 144.58H857.913C831.407 120.554 802.297 99.511 771.118 81.7661H667.623H667.7Z" fill="url(#paint6_linear_576_72)"/>
<path d="M478.022 144.579L501.77 207.314H523.373L499.778 144.579H478.022Z" fill="url(#paint7_linear_576_72)"/>
<path d="M545.437 207.314H916.441C898.745 184.702 879.211 163.659 857.991 144.501C694.206 144.501 532.414 144.501 521.766 144.501L545.437 207.314Z" fill="url(#paint8_linear_576_72)"/>
<path d="M712.134 270.128L712.057 270.05H690.454H712.057L688.616 207.315H666.859L690.454 270.128H712.134Z" fill="#CFFF03"/>
<path d="M734.271 270.05H958.345C945.935 248.065 931.839 227.101 916.441 207.315H710.523L734.271 270.05Z" fill="url(#paint9_linear_576_72)"/>
<path d="M416.662 270.128L440.333 332.942H462.013L438.418 270.128H416.662Z" fill="#9AFB06"/>
<path d="M957.198 270.128H958.27H734.35H460.33L484.001 332.942H680.649V332.785H702.405L680.726 332.864L988.377 332.942C979.797 311.193 969.761 290.229 958.424 270.128H957.275H957.198Z" fill="url(#paint10_linear_576_72)"/>
<path d="M954.284 270.207H958.267V270.128H957.195H954.207L954.284 270.207Z" fill="url(#paint11_linear_576_72)"/>
<path d="M954.284 270.207H958.267V270.128H957.195H954.207L954.284 270.207Z" fill="url(#paint12_linear_576_72)"/>
<path d="M954.284 270.207H958.267V270.128H957.195H954.207L954.284 270.207Z" fill="url(#paint13_linear_576_72)"/>
<path d="M954.285 270.207L954.208 270.128H734.348V270.207H954.285Z" fill="url(#paint14_linear_576_72)"/>
<path d="M954.285 270.207L954.208 270.128H734.348V270.207H954.285Z" fill="url(#paint15_linear_576_72)"/>
<path d="M954.285 270.207L954.208 270.128H734.348V270.207H954.285Z" fill="url(#paint16_linear_576_72)"/>
<path d="M680.646 332.864H702.326L702.249 332.785H680.569L680.646 332.942V332.864Z" fill="#72FF03"/>
<path d="M680.646 332.864H702.326L702.249 332.785H680.569L680.646 332.942V332.864Z" fill="url(#paint17_linear_576_72)"/>
<path d="M725.844 395.678L702.326 332.942H680.646L704.241 395.678H725.844Z" fill="#72FF03"/>
<path d="M725.844 395.678H704.241L680.646 332.942L704.241 395.756H725.844V395.678Z" fill="#72FF03"/>
<path d="M747.908 395.756H1008.52C1003.08 374.242 996.342 353.278 988.299 332.942C860.979 332.942 725.386 332.942 724.237 332.942L747.908 395.756Z" fill="url(#paint18_linear_576_72)"/>
<path d="M584.43 458.57L560.836 395.756H539.079L562.827 458.57H584.43Z" fill="#00FF9D"/>
<path d="M704.244 395.756C636.754 395.756 588.415 395.756 582.823 395.756L606.494 458.57H641.427C714.739 458.57 885.264 458.57 1020.24 458.57C1017.64 437.213 1013.73 416.249 1008.6 395.756" fill="url(#paint19_linear_576_72)"/>
<path d="M619.668 458.57L643.339 521.384H665.019L641.424 458.57H619.668Z" fill="#00FFF8"/>
<path d="M684.477 521.384C716.345 521.384 886.334 521.384 1024 521.384C1024 500.106 1022.69 479.141 1020.17 458.57C862.203 458.57 661.801 458.57 660.729 458.57L684.4 521.384H684.477Z" fill="url(#paint20_linear_576_72)"/>
<path d="M715.885 584.119L739.786 521.384H717.953L694.129 584.119H715.885Z" fill="#71FFF8"/>
<path d="M761.238 521.383L737.414 584.118C738.869 584.118 889.707 584.118 1020.17 584.118C1022.7 563.547 1024 542.582 1024 521.304C901.274 521.304 762.157 521.304 761.238 521.304V521.383Z" fill="url(#paint21_linear_576_72)"/>
<path d="M539.386 646.933H561.065L584.737 584.119H562.98L539.386 646.933Z" fill="#CAEFFF"/>
<path d="M606.11 584.197L582.515 647.011H1008.52C1013.66 626.518 1017.56 605.554 1020.17 584.197C848.875 584.197 620.205 584.197 606.11 584.197Z" fill="url(#paint22_linear_576_72)"/>
<path d="M640.123 646.933H618.366L594.772 709.746H616.375L640.123 646.933Z" fill="#F3DFEE"/>
<path d="M637.899 709.746H988.373C996.417 689.41 1003.16 668.446 1008.6 646.933H661.571L637.976 709.746H637.899Z" fill="url(#paint23_linear_576_72)"/>
<path d="M718.183 709.747H696.427L672.833 772.56H694.512L718.183 709.747Z" fill="#F294FF"/>
<path d="M715.962 772.56C718.03 772.56 837.613 772.56 958.344 772.56C969.682 752.46 979.717 731.496 988.297 709.747H739.557L715.962 772.56Z" fill="url(#paint24_linear_576_72)"/>
<path d="M416.968 835.373H438.571L462.243 772.56H440.563L416.968 835.373Z" fill="url(#paint25_linear_576_72)"/>
<path d="M460.098 835.373H916.441C931.916 815.587 945.935 794.623 958.422 772.56H483.692L460.098 835.373Z" fill="url(#paint26_linear_576_72)"/>
<path d="M694.512 772.796H672.909L672.833 772.874H694.512V772.796Z" fill="#BF76B0"/>
<path d="M694.512 772.796H672.909L672.833 772.874H694.512V772.796Z" fill="url(#paint27_linear_576_72)"/>
<path d="M526.976 835.609H505.373L505.45 835.53H526.976L527.053 835.373H505.373L481.702 898.187H503.381L526.976 835.609Z" fill="url(#paint28_linear_576_72)"/>
<path d="M505.371 835.609H526.974V835.53H505.447L505.371 835.609Z" fill="url(#paint29_linear_576_72)"/>
<path d="M505.371 835.609H526.974V835.53H505.447L505.371 835.609Z" fill="url(#paint30_linear_576_72)"/>
<path d="M524.83 898.187H857.99C879.134 879.029 898.745 858.064 916.364 835.452H548.424L524.753 898.187H524.83Z" fill="url(#paint31_linear_576_72)"/>
<path d="M594.77 898.501H573.167H594.77L594.923 898.187H573.167L549.572 960.922H571.175L594.77 898.501Z" fill="#FF00CF"/>
<path d="M592.704 960.922H771.196C802.375 943.177 831.409 922.135 857.991 898.108H616.298L592.704 960.922Z" fill="url(#paint32_linear_576_72)"/>
<path d="M440.563 960.922L422.025 1010.62L421.871 1011.09C429.915 1012.98 435.277 1014.16 441.942 1015.41L462.396 960.922H440.64H440.563Z" fill="#FF00A4"/>
<path d="M462.013 1018.95L483.769 961.001C483.769 961.001 618.213 961.001 771.196 961.001C700.871 1000.97 619.898 1023.97 533.716 1023.97C533.716 1023.97 498.324 1024.68 462.013 1019.02V1018.95Z" fill="#F700A5"/>
<defs>
<linearGradient id="paint0_linear_576_72" x1="460.404" y1="270.129" x2="988.068" y2="270.129" gradientUnits="userSpaceOnUse">
<stop stop-color="#99FF01"/>
<stop offset="1" stop-color="#A3CD39"/>
</linearGradient>
<linearGradient id="paint1_linear_576_72" x1="710.524" y1="270.129" x2="958.268" y2="270.129" gradientUnits="userSpaceOnUse">
<stop stop-color="#CFFF03"/>
<stop offset="1" stop-color="#CCDB29"/>
</linearGradient>
<linearGradient id="paint2_linear_576_72" x1="481.702" y1="867.015" x2="527.206" y2="867.015" gradientUnits="userSpaceOnUse">
<stop stop-color="#F800FF"/>
<stop offset="1" stop-color="#B2519E"/>
</linearGradient>
<linearGradient id="paint3_linear_576_72" x1="466.532" y1="18.9523" x2="1220.72" y2="18.9523" gradientUnits="userSpaceOnUse">
<stop stop-color="#FFC632"/>
<stop offset="1" stop-color="#F58A4E"/>
</linearGradient>
<linearGradient id="paint4_linear_576_72" x1="466.532" y1="21.3862" x2="1220.72" y2="21.3862" gradientUnits="userSpaceOnUse">
<stop stop-color="#FFC632"/>
<stop offset="1" stop-color="#F58A4E"/>
</linearGradient>
<linearGradient id="paint5_linear_576_72" x1="466.609" y1="50.3591" x2="1220.8" y2="50.3591" gradientUnits="userSpaceOnUse">
<stop stop-color="#FFC632"/>
<stop offset="1" stop-color="#F58A4E"/>
</linearGradient>
<linearGradient id="paint6_linear_576_72" x1="667.7" y1="113.173" x2="1217.2" y2="113.173" gradientUnits="userSpaceOnUse">
<stop stop-color="#FFFF03"/>
<stop offset="1" stop-color="#FFCC3A"/>
</linearGradient>
<linearGradient id="paint7_linear_576_72" x1="478.022" y1="175.986" x2="524.216" y2="175.986" gradientUnits="userSpaceOnUse">
<stop stop-color="#FFFF03"/>
<stop offset="1" stop-color="#F5EA14"/>
</linearGradient>
<linearGradient id="paint8_linear_576_72" x1="521.766" y1="175.986" x2="1219.73" y2="175.986" gradientUnits="userSpaceOnUse">
<stop stop-color="#FFFF03"/>
<stop offset="1" stop-color="#F5EA14"/>
</linearGradient>
<linearGradient id="paint9_linear_576_72" x1="710.523" y1="238.721" x2="1216.43" y2="238.721" gradientUnits="userSpaceOnUse">
<stop stop-color="#CFFF03"/>
<stop offset="1" stop-color="#CCDB29"/>
</linearGradient>
<linearGradient id="paint10_linear_576_72" x1="460.33" y1="301.535" x2="1220.8" y2="301.535" gradientUnits="userSpaceOnUse">
<stop stop-color="#99FF01"/>
<stop offset="1" stop-color="#A3CD39"/>
</linearGradient>
<linearGradient id="paint11_linear_576_72" x1="460.404" y1="270.128" x2="988.067" y2="270.128" gradientUnits="userSpaceOnUse">
<stop stop-color="#99FF01"/>
<stop offset="1" stop-color="#A3CD39"/>
</linearGradient>
<linearGradient id="paint12_linear_576_72" x1="710.523" y1="270.128" x2="958.267" y2="270.128" gradientUnits="userSpaceOnUse">
<stop stop-color="#CFFF03"/>
<stop offset="1" stop-color="#CCDB29"/>
</linearGradient>
<linearGradient id="paint13_linear_576_72" x1="460.327" y1="270.128" x2="1220.8" y2="270.128" gradientUnits="userSpaceOnUse">
<stop stop-color="#99FF01"/>
<stop offset="1" stop-color="#A3CD39"/>
</linearGradient>
<linearGradient id="paint14_linear_576_72" x1="460.404" y1="270.128" x2="988.068" y2="270.128" gradientUnits="userSpaceOnUse">
<stop stop-color="#99FF01"/>
<stop offset="1" stop-color="#A3CD39"/>
</linearGradient>
<linearGradient id="paint15_linear_576_72" x1="710.524" y1="270.128" x2="958.268" y2="270.128" gradientUnits="userSpaceOnUse">
<stop stop-color="#CFFF03"/>
<stop offset="1" stop-color="#CCDB29"/>
</linearGradient>
<linearGradient id="paint16_linear_576_72" x1="460.327" y1="270.128" x2="1220.8" y2="270.128" gradientUnits="userSpaceOnUse">
<stop stop-color="#99FF01"/>
<stop offset="1" stop-color="#A3CD39"/>
</linearGradient>
<linearGradient id="paint17_linear_576_72" x1="460.326" y1="332.864" x2="1220.8" y2="332.864" gradientUnits="userSpaceOnUse">
<stop stop-color="#99FF01"/>
<stop offset="1" stop-color="#A3CD39"/>
</linearGradient>
<linearGradient id="paint18_linear_576_72" x1="724.237" y1="364.349" x2="1216.2" y2="364.349" gradientUnits="userSpaceOnUse">
<stop stop-color="#72FF03"/>
<stop offset="1" stop-color="#8AC53F"/>
</linearGradient>
<linearGradient id="paint19_linear_576_72" x1="582.823" y1="427.163" x2="1218.66" y2="427.163" gradientUnits="userSpaceOnUse">
<stop stop-color="#00FF9D"/>
<stop offset="1" stop-color="#75BF43"/>
</linearGradient>
<linearGradient id="paint20_linear_576_72" x1="660.729" y1="489.977" x2="1217.35" y2="489.977" gradientUnits="userSpaceOnUse">
<stop stop-color="#00FFF8"/>
<stop offset="1" stop-color="#71CBD7"/>
</linearGradient>
<linearGradient id="paint21_linear_576_72" x1="737.49" y1="552.79" x2="1215.97" y2="552.79" gradientUnits="userSpaceOnUse">
<stop stop-color="#71FFF8"/>
<stop offset="1" stop-color="#8FD4DD"/>
</linearGradient>
<linearGradient id="paint22_linear_576_72" x1="582.515" y1="615.526" x2="1218.65" y2="615.526" gradientUnits="userSpaceOnUse">
<stop stop-color="#CAEFFF"/>
<stop offset="0.04" stop-color="#CDEDFE"/>
<stop offset="0.31" stop-color="#DDE3FC"/>
<stop offset="0.6" stop-color="#E6DDFB"/>
<stop offset="1" stop-color="#EADCFB"/>
</linearGradient>
<linearGradient id="paint23_linear_576_72" x1="637.899" y1="678.34" x2="1217.73" y2="678.34" gradientUnits="userSpaceOnUse">
<stop stop-color="#F3DFEE"/>
<stop offset="1" stop-color="#FF95FF"/>
</linearGradient>
<linearGradient id="paint24_linear_576_72" x1="715.962" y1="741.153" x2="1216.35" y2="741.153" gradientUnits="userSpaceOnUse">
<stop stop-color="#F294FF"/>
<stop offset="1" stop-color="#CF99C5"/>
</linearGradient>
<linearGradient id="paint25_linear_576_72" x1="416.968" y1="803.966" x2="462.243" y2="803.966" gradientUnits="userSpaceOnUse">
<stop stop-color="#F466FF"/>
<stop offset="1" stop-color="#BF76B0"/>
</linearGradient>
<linearGradient id="paint26_linear_576_72" x1="460.098" y1="803.966" x2="1220.8" y2="803.966" gradientUnits="userSpaceOnUse">
<stop stop-color="#F466FF"/>
<stop offset="1" stop-color="#BF76B0"/>
</linearGradient>
<linearGradient id="paint27_linear_576_72" x1="460.097" y1="772.796" x2="1220.8" y2="772.796" gradientUnits="userSpaceOnUse">
<stop stop-color="#F466FF"/>
<stop offset="1" stop-color="#BF76B0"/>
</linearGradient>
<linearGradient id="paint28_linear_576_72" x1="481.702" y1="866.78" x2="527.129" y2="866.78" gradientUnits="userSpaceOnUse">
<stop stop-color="#F800FF"/>
<stop offset="1" stop-color="#B2519E"/>
</linearGradient>
<linearGradient id="paint29_linear_576_72" x1="481.7" y1="835.609" x2="527.204" y2="835.609" gradientUnits="userSpaceOnUse">
<stop stop-color="#F800FF"/>
<stop offset="1" stop-color="#B2519E"/>
</linearGradient>
<linearGradient id="paint30_linear_576_72" x1="481.7" y1="835.609" x2="527.127" y2="835.609" gradientUnits="userSpaceOnUse">
<stop stop-color="#F800FF"/>
<stop offset="1" stop-color="#B2519E"/>
</linearGradient>
<linearGradient id="paint31_linear_576_72" x1="524.83" y1="866.78" x2="1219.65" y2="866.78" gradientUnits="userSpaceOnUse">
<stop stop-color="#F800FF"/>
<stop offset="1" stop-color="#B2519E"/>
</linearGradient>
<linearGradient id="paint32_linear_576_72" x1="592.704" y1="929.594" x2="1218.5" y2="929.594" gradientUnits="userSpaceOnUse">
<stop stop-color="#FF00CF"/>
<stop offset="1" stop-color="#CF4999"/>
</linearGradient>
</defs>
</svg>
